<svg width="25" height="24" viewBox="0 0 25 24" fill="none" xmlns="http://www.w3.org/2000/svg">
<path d="M11.9157 1.07434C6.61724 -1.31943 4.08843 1.03444 4.08843 1.03444C-2.92801 6.20497 1.21442 20.7511 1.21442 20.7511L4.79489 20.6553C0.620351 9.42857 4.72264 4.72882 5.92683 3.65162C7.08286 2.84572 8.62423 3.2766 8.62423 3.2766C13.6497 5.04799 14.862 7.91252 14.862 7.91252L18.6511 7.7689C18.6592 7.77688 17.2141 3.4681 11.9157 1.07434Z" fill="#D1AF2B"/>
<path d="M20.914 1.13014C20.914 1.13014 18.3852 -1.22372 13.0867 1.17004C8.01306 3.46008 6.47169 7.50554 6.35127 7.84864C5.74114 9.19713 1.98406 18.5727 12.1796 23.9268C12.3562 24.0225 12.5729 24.0225 12.7496 23.9347C13.729 23.44 16.9241 21.6048 18.2648 17.9583L14.9171 17.8785C14.9171 17.8785 13.8975 19.4424 12.9101 20.3122C12.6934 20.5037 12.3722 20.5276 12.1394 20.3521C10.7666 19.3547 6.41549 15.4528 10.1244 8.02419C10.1244 8.02419 11.6658 4.63302 16.3621 3.38826C16.3621 3.38826 17.8313 2.93345 18.9471 3.66754C19.9747 4.52929 24.5105 9.16521 20.1915 20.775L23.7719 20.8707C23.788 20.8548 27.9304 6.30068 20.914 1.13014Z" fill="#F7D64A"/>
</svg>
