<svg width="57" height="34" viewBox="0 0 57 34" fill="none" xmlns="http://www.w3.org/2000/svg">
<path d="M28.1467 26.0723C28.6069 13.8514 42.3743 15.9513 46.7035 13.1287C46.8097 13.0595 46.9502 13.0836 47.0246 13.1864L50.6476 18.1867C50.7191 18.2854 50.7006 18.4236 50.6025 18.496C48.4799 20.0646 45.8409 19.6514 42.7851 19.4974C45.2405 21.422 46.7708 22.2996 49.7991 23.3657C49.8452 23.3819 49.8857 23.4126 49.9132 23.4529L52.1414 26.7206C52.2449 26.8723 52.1362 27.0779 51.9526 27.0779H51.6994C42.7851 26.4075 38.2137 16.3519 28.1467 26.0723Z" fill="white"/>
<path d="M28.1467 26.0723C28.6069 13.8514 42.3743 15.9513 46.7035 13.1287C46.8097 13.0595 46.9502 13.0836 47.0246 13.1864L50.6476 18.1867C50.7191 18.2854 50.7006 18.4236 50.6025 18.496C48.4799 20.0646 45.8409 19.6514 42.7851 19.4974M28.1467 26.0723C33.6423 19.0334 38.6016 19.2866 42.7851 19.4974M28.1467 26.0723C38.2137 16.3519 42.7851 26.4075 51.6994 27.0779H51.9526C52.1362 27.0779 52.2449 26.8723 52.1414 26.7206L49.9132 23.4529C49.8857 23.4126 49.8452 23.3819 49.7991 23.3657C46.7708 22.2996 45.2405 21.422 42.7851 19.4974" stroke="#5E5E5E" stroke-width="0.457146" stroke-linecap="round"/>
<path d="M28.3945 26.0723C27.9344 13.8514 14.167 15.9513 9.83779 13.1287C9.73153 13.0595 9.59107 13.0836 9.51665 13.1864L5.8937 18.1867C5.82217 18.2854 5.84068 18.4236 5.93873 18.496C8.06133 20.0646 10.7003 19.6514 13.7561 19.4974C11.3007 21.422 9.77047 22.2996 6.74211 23.3657C6.69606 23.3819 6.65559 23.4126 6.62808 23.4529L4.39982 26.7206C4.29636 26.8723 4.40502 27.0779 4.58867 27.0779H4.84185C13.7561 26.4075 18.3276 16.3519 28.3945 26.0723Z" fill="white"/>
<path d="M28.3945 26.0723C27.9344 13.8514 14.167 15.9513 9.83779 13.1287C9.73153 13.0595 9.59107 13.0836 9.51665 13.1864L5.8937 18.1867C5.82217 18.2854 5.84068 18.4236 5.93873 18.496C8.06133 20.0646 10.7004 19.6514 13.7561 19.4974M28.3945 26.0723C22.899 19.0334 17.9397 19.2866 13.7561 19.4974M28.3945 26.0723C18.3276 16.3519 13.7561 26.4075 4.84185 27.0779H4.58867C4.40502 27.0779 4.29636 26.8723 4.39982 26.7206L6.62808 23.4529C6.65559 23.4126 6.69606 23.3819 6.74211 23.3657C9.77047 22.2996 11.3007 21.422 13.7561 19.4974" stroke="#5E5E5E" stroke-width="0.457146" stroke-linecap="round"/>
<path d="M24.6519 30.0986L0.719095 31.0919C0.59665 31.097 0.5 31.1978 0.5 31.3203V32.2035C0.5 32.3335 0.608207 32.4373 0.738051 32.4319L24.6538 31.4393C24.7024 31.4373 24.7512 31.4514 24.7916 31.4784C27.5769 33.3391 29.1124 33.7168 31.5145 31.5024C31.5595 31.4609 31.6202 31.4376 31.6813 31.4401L56.2622 32.4322C56.392 32.4374 56.5 32.3336 56.5 32.2038V31.3206C56.5 31.1979 56.4032 31.0971 56.2806 31.0922L31.6761 30.0991C31.618 30.0968 31.5603 30.1176 31.5161 30.1554C29.0616 32.2517 27.5503 32.0398 24.7926 30.1397C24.7516 30.1115 24.7016 30.0966 24.6519 30.0986Z" fill="#B4B4B4" stroke="#5E5E5E" stroke-width="0.457146" stroke-linecap="round"/>
<path d="M4.53391 26.7327C15.8357 25.9942 18.1448 17.0614 28.1588 26.0714C26.371 26.0714 25.4339 27.5382 24.7749 29.9298C24.748 30.0273 24.6609 30.0969 24.5598 30.0999L2.01094 30.7535C1.84189 30.7584 1.72624 30.5843 1.79623 30.4304L2.04077 29.8925C2.07786 29.8109 2.15922 29.7585 2.24885 29.7585H2.62383C2.72164 29.7585 2.80861 29.6963 2.84017 29.6037L3.19175 28.5726C3.22331 28.48 3.31028 28.4178 3.40809 28.4178H3.54823C3.64104 28.4178 3.72464 28.3616 3.75978 28.2757L4.33289 26.875C4.3662 26.7936 4.44615 26.7385 4.53391 26.7327Z" fill="white" stroke="#5E5E5E" stroke-width="0.457146" stroke-linecap="round"/>
<path d="M51.5822 27.0503C39.798 24.3484 37.2701 17.3852 28.1576 26.0716C29.0578 26.0712 30.3539 26.7933 31.5308 29.6232C31.5647 29.7047 31.6424 29.7615 31.7304 29.7667L54.0651 31.0772C54.2369 31.0873 54.3577 30.9111 54.2865 30.7544L54.0471 30.2278C54.01 30.1462 53.9287 30.0938 53.839 30.0938H53.4641C53.3663 30.0938 53.2793 30.0316 53.2477 29.939L52.8961 28.9079C52.8646 28.8153 52.7776 28.7531 52.6798 28.7531H52.5397C52.4469 28.7531 52.3633 28.697 52.3281 28.6111L51.7456 27.1874C51.7173 27.1183 51.655 27.0669 51.5822 27.0503Z" fill="white" stroke="#5E5E5E" stroke-width="0.457146" stroke-linecap="round"/>
<path d="M24.7634 29.947C25.9378 25.0974 29.7066 24.4639 31.5363 29.945C31.566 30.0339 31.5381 30.1349 31.4651 30.1937C31.3636 30.2755 31.2637 30.354 31.1652 30.4291C29.1143 31.9933 27.6787 32.1103 25.2015 30.4291C25.0867 30.3512 24.9698 30.2695 24.8504 30.1839C24.7762 30.1307 24.7419 30.0357 24.7634 29.947Z" fill="#D9D9D9"/>
<path d="M25.2015 30.4291C25.0867 30.3512 24.9698 30.2695 24.8504 30.1839C24.7762 30.1307 24.7419 30.0357 24.7634 29.947C25.9378 25.0974 29.7066 24.4639 31.5363 29.945C31.566 30.0339 31.5381 30.1349 31.4651 30.1937C31.3636 30.2755 31.2637 30.354 31.1652 30.4291M25.2015 30.4291C27.6787 32.1103 29.1143 31.9933 31.1652 30.4291M25.2015 30.4291C26.5571 26.4068 29.2999 26.0716 31.1652 30.4291" stroke="#5E5E5E" stroke-width="0.457146" stroke-linecap="round"/>
<path d="M27.4355 11.8522C28.139 11.4549 28.3059 10.9739 28.5611 10.2632C28.8184 10.9484 28.9832 11.4549 29.6866 11.8522C28.9832 12.3488 28.8003 12.9899 28.5611 13.6398C28.2482 12.8302 27.9983 12.1501 27.4355 11.8522Z" fill="white" stroke="#5E5E5E" stroke-width="0.457146" stroke-linecap="round"/>
<path d="M29.9705 6.96867C30.3808 6.73694 30.4782 6.45632 30.627 6.04175C30.7771 6.44146 30.8732 6.73694 31.2836 6.96867C30.8732 7.25833 30.7666 7.63231 30.627 8.01146C30.4445 7.53917 30.2987 7.14247 29.9705 6.96867Z" fill="white" stroke="#5E5E5E" stroke-width="0.457146" stroke-linecap="round"/>
<path d="M27.1562 2.56679C27.8597 2.16954 28.0266 1.68848 28.2818 0.977783C28.5391 1.663 28.7039 2.16954 29.4073 2.56679C28.7039 3.06336 28.521 3.70447 28.2818 4.35443C27.9689 3.54479 27.719 2.86473 27.1562 2.56679Z" fill="white" stroke="#5E5E5E" stroke-width="0.457146" stroke-linecap="round"/>
<path d="M25.1875 6.96867C25.5979 6.73694 25.6952 6.45632 25.8441 6.04175C25.9942 6.44146 26.0903 6.73694 26.5006 6.96867C26.0903 7.25833 25.9836 7.63231 25.8441 8.01146C25.6615 7.53917 25.5158 7.14247 25.1875 6.96867Z" fill="white" stroke="#5E5E5E" stroke-width="0.457146" stroke-linecap="round"/>
<path d="M33.0647 4.81875C33.7682 4.42149 33.9351 3.94043 34.1902 3.22974C34.4476 3.91495 34.6123 4.42149 35.3158 4.81875C34.6123 5.31531 34.4294 5.95642 34.1902 6.60638C33.8773 5.79675 33.6275 5.11669 33.0647 4.81875Z" fill="white" stroke="#5E5E5E" stroke-width="0.457146" stroke-linecap="round"/>
</svg>
