<svg width="57" height="56" viewBox="0 0 57 56" fill="none" xmlns="http://www.w3.org/2000/svg">
<path d="M26.2435 34.1198L22.3681 30.2421C22.2065 30.0804 22.1465 29.8424 22.2122 29.6234C23.7826 24.3959 25.3913 20.439 27.291 17.5308C31.284 11.4184 36.5626 9.93919 45.4737 11.0326C46.6307 20.0958 44.8032 25.2057 38.8439 29.0908C35.9051 31.0066 31.9614 32.6246 26.8753 34.272C26.653 34.344 26.4086 34.285 26.2435 34.1198Z" fill="white"/>
<path d="M27.291 17.5308C25.3913 20.439 23.7826 24.3959 22.2122 29.6234C22.1465 29.8424 22.2065 30.0804 22.3681 30.2421L26.2435 34.1198C26.4086 34.285 26.653 34.344 26.8753 34.272C31.9614 32.6246 35.9051 31.0066 38.8439 29.0908M27.291 17.5308C31.284 11.4184 36.5626 9.93919 45.4737 11.0326C46.6307 20.0958 44.8032 25.2057 38.8439 29.0908M27.291 17.5308C29.7038 24.163 32.3106 26.5665 38.8439 29.0908" stroke="#5E5E5E" stroke-linecap="round"/>
<path d="M19.8996 21.2374L24.0355 21.928C24.4133 21.9911 24.6454 22.3768 24.5241 22.7402L22.4271 29.0249C22.2804 29.4644 21.721 29.5943 21.3461 29.3219C20.2071 28.4945 18.8075 28.2106 17.1469 29.6713C16.9454 29.8485 16.6565 29.8991 16.4165 29.779L15.6377 29.3893C15.3203 29.2304 15.1993 28.8391 15.3718 28.5289L19.2521 21.5494C19.3802 21.3189 19.6395 21.194 19.8996 21.2374Z" fill="white" stroke="#5E5E5E" stroke-linecap="round"/>
<path d="M21.9271 31.0751L22.6618 30.9284C22.8662 30.8876 23.0775 30.9516 23.2248 31.099L25.3971 33.2726C25.5444 33.4201 25.6084 33.6314 25.5674 33.8357L25.4203 34.5704C25.3225 35.0586 24.72 35.2407 24.3681 34.8886L21.6083 32.1271C21.2563 31.7749 21.4389 31.1726 21.9271 31.0751Z" fill="white" stroke="#5E5E5E" stroke-linecap="round"/>
<path d="M22.5781 35.7433L20.7609 33.925C20.5272 33.6911 20.1501 33.6801 19.9091 33.9065C17.9467 35.7502 17.3804 37.0058 16.9878 38.8113C16.8962 39.2323 17.2643 39.6073 17.6861 39.5194C19.6651 39.1069 20.9224 38.4273 22.6027 36.5877C22.8233 36.3462 22.8093 35.9746 22.5781 35.7433Z" fill="#D9D9D9" stroke="#5E5E5E" stroke-linecap="round"/>
<path d="M13.7312 33.9458L10.6447 37.0304" stroke="#5E5E5E" stroke-linecap="round"/>
<path d="M14.6118 37.4727L9.32068 42.7606" stroke="#5E5E5E" stroke-linecap="round"/>
<path d="M14.6106 41.8809L12.8469 43.6435" stroke="#5E5E5E" stroke-linecap="round"/>
<path d="M19.4595 42.323L14.1683 47.6109" stroke="#5E5E5E" stroke-linecap="round"/>
<path d="M22.5452 42.7651L19.4587 45.8498" stroke="#5E5E5E" stroke-linecap="round"/>
<circle cx="37.5392" cy="18.9665" r="3.24026" transform="rotate(45.0175 37.5392 18.9665)" fill="#D9D9D9" stroke="#5E5E5E"/>
<path d="M35.6524 36.1641L34.6228 32.3843C34.5287 32.039 34.1639 31.8436 33.8243 31.9567L27.4714 34.0721C27.0318 34.2185 26.8988 34.7793 27.1794 35.1481C28.126 36.3925 28.7053 38.0781 27.2591 39.7899C27.0859 39.9948 27.0344 40.2832 27.1543 40.5232L27.519 41.253C27.6865 41.5884 28.1102 41.7011 28.4222 41.4932L35.3965 36.8467C35.6198 36.6979 35.7229 36.423 35.6524 36.1641Z" fill="white" stroke="#5E5E5E" stroke-linecap="round"/>
</svg>
