<svg width="40" height="40" viewBox="0 0 40 40" fill="none" xmlns="http://www.w3.org/2000/svg">
<circle cx="20" cy="20" r="19.5" fill="white" stroke="#F5F5F5"/>
<path d="M29.8055 18.0415H29V18H20V22H25.6515C24.827 24.3285 22.6115 26 20 26C16.6865 26 14 23.3135 14 20C14 16.6865 16.6865 14 20 14C21.5295 14 22.921 14.577 23.9805 15.5195L26.809 12.691C25.023 11.0265 22.634 10 20 10C14.4775 10 10 14.4775 10 20C10 25.5225 14.4775 30 20 30C25.5225 30 30 25.5225 30 20C30 19.3295 29.931 18.675 29.8055 18.0415Z" fill="#FFC107"/>
<path d="M11.1531 15.3455L14.4386 17.755C15.3276 15.554 17.4806 14 20.0001 14C21.5296 14 22.9211 14.577 23.9806 15.5195L26.8091 12.691C25.0231 11.0265 22.6341 10 20.0001 10C16.1591 10 12.8281 12.1685 11.1531 15.3455Z" fill="#FF3D00"/>
<path d="M19.9999 29.9999C22.5829 29.9999 24.9299 29.0114 26.7044 27.4039L23.6094 24.7849C22.5717 25.574 21.3036 26.0009 19.9999 25.9999C17.3989 25.9999 15.1904 24.3414 14.3584 22.0269L11.0974 24.5394C12.7524 27.7779 16.1134 29.9999 19.9999 29.9999Z" fill="#4CAF50"/>
<path d="M29.8055 18.0415H29V18H20V22H25.6515C25.2571 23.1082 24.5467 24.0766 23.608 24.7855L23.6095 24.7845L26.7045 27.4035C26.4855 27.6025 30 25 30 20C30 19.3295 29.931 18.675 29.8055 18.0415Z" fill="#1976D2"/>
</svg>
