<svg width="101" height="245" viewBox="0 0 101 245" fill="none" xmlns="http://www.w3.org/2000/svg">
<path d="M51.2628 91.9849C51.3335 91.602 52.1166 89.5757 52.0479 90.7546C52.0058 91.4754 52.0706 92.2003 51.9051 92.893C51.801 93.3289 51.6095 93.7943 51.1498 93.9358C50.5414 94.1231 50.9889 93.978 51.465 93.9944C54.3633 94.0946 57.7941 93.7974 60.5166 94.9376C61.5293 95.3618 62.1759 96.295 63.1214 96.8358C63.2967 96.936 64.2182 97.4729 63.5021 97.1639C59.5634 95.4644 55.2484 95.0868 51.0487 94.6271C50.4607 94.5628 50.5196 94.679 50.567 93.9593C50.6822 92.2113 50.7798 90.4423 50.6741 88.6924C50.5795 87.1273 50.6026 85.5721 50.4897 84.0055C50.3678 82.3134 49.8624 80.7037 49.8712 79.0023C49.8807 77.182 50.1908 75.4291 50.1091 73.6007C50.0414 72.0862 50.2188 70.4211 50.6087 68.9489C51.0203 67.3943 52.6466 66.9959 53.3443 65.6213C53.5025 65.3096 53.4065 65.6979 53.4038 65.9376C53.3878 67.3388 53.2298 68.7325 53.2076 70.1324C53.1924 71.0904 53.0222 73.0018 53.7131 73.8526C53.9336 74.1241 53.6171 73.1633 53.5525 72.8215C53.221 71.0686 53.064 69.2852 52.9399 67.5077C52.9043 66.9972 52.4657 64.6941 52.9756 64.1918C53.1752 63.9952 53.1897 64.4899 53.1897 64.5667C53.1897 65.746 53.2728 66.8873 53.38 68.0584C53.5098 69.4765 53.693 70.8943 53.8855 72.3059C53.9164 72.5326 54.1702 74.6873 54.4148 74.5205C55.1837 73.9961 55.7717 73.2752 56.5796 72.7687C57.7164 72.0561 58.7931 71.3058 59.8565 70.4898C61.8172 68.9852 63.5508 66.9882 64.6974 64.8186C65.487 63.3248 66.2348 61.9776 66.5946 60.3368C66.8128 59.3414 66.951 58.3008 67.3201 57.3489C67.5254 56.8196 67.6687 56.2734 67.8316 55.732C67.9154 55.4534 68.769 58.3101 68.8188 58.7199C69.5493 64.7245 65.234 69.8383 61.5573 74.0283C60.5126 75.2189 59.3384 76.2895 58.2924 77.479C57.1486 78.7797 60.0128 77.251 60.1598 77.1744C63.7941 75.28 68.2179 72.8745 70.0142 69.0017C70.368 68.2389 70.6473 67.4172 70.8825 66.6114C70.8933 66.5743 71.17 65.2046 70.9717 65.9142C69.9784 69.4675 69.0355 72.7892 67.0941 75.9793C65.9096 77.9257 64.6127 79.8287 63.1095 81.5508C62.69 82.0314 60.8781 83.4706 60.8615 84.2047C60.8518 84.6377 64.3124 82.2631 64.3168 82.2597C66.0449 80.9085 67.8145 79.5182 69.4254 78.0298C70.3927 77.136 71.3692 76.0004 72.2146 74.9892C72.3596 74.8157 72.241 75.4425 72.1968 75.6629C71.902 77.1308 71.5682 78.5928 71.2274 80.051C70.236 84.2923 68.8076 88.2216 66.8206 92.1197C65.7435 94.2326 64.313 95.8504 62.8419 97.6619C62.0252 98.6677 64.9749 96.1475 65.8809 95.2189C68.6407 92.3901 70.7269 89.1264 72.066 85.4116C72.809 83.3501 73.5782 80.4127 72.9937 78.2055C72.9013 77.8566 72.5462 75.2454 72.3514 75.1942C72.0958 75.127 72.069 75.6368 71.9589 75.8738C71.1286 77.6616 71.5556 76.8276 70.5197 78.9906C68.5198 83.1663 66.1977 87.155 63.9897 91.2233C62.2184 94.4871 63.3979 92.3593 62.051 94.9142C61.595 95.779 61.5184 95.7192 61.7774 94.8908C62.7761 91.696 64.3085 88.6575 65.5776 85.5639C66.7899 82.6088 68.0966 79.5116 68.7118 76.3659C69.3219 73.2455 67.7042 77.2789 67.4688 77.8481C65.7447 82.0169 63.8405 86.1144 61.932 90.2039C61.5951 90.9259 60.9769 92.244 60.5523 93.016C60.2591 93.549 59.9673 93.9911 60.2252 92.9633C61.0426 89.705 62.1048 86.4966 63.0501 83.2732C63.8916 80.4035 64.0943 79.682 64.9175 76.8053C65.1952 75.8348 65.4837 74.8672 65.7501 73.8936C65.9533 73.1508 66.6858 71.0568 66.1545 71.6205C64.9463 72.9022 64.4187 74.6746 63.6448 76.2487C61.7104 80.1835 59.8533 84.1772 58.334 88.2881C57.6409 90.1634 57.9083 89.4913 57.6144 90.6081C57.2659 91.9323 58.4209 87.989 58.8871 86.7005C59.7896 84.2061 60.7013 81.8872 61.6109 79.3889C62.3947 77.2362 63.7473 74.4638 63.9362 72.1067C63.9763 71.6068 63.2645 72.8732 63.0322 73.3195C61.4614 76.3369 60.0671 79.4628 58.7919 82.6112C57.6029 85.5468 56.6561 88.5205 55.7529 91.5455C55.1285 93.6369 57.1629 87.4127 57.8523 85.3413C58.0633 84.7072 59.7626 79.5432 59.9457 78.9671C60.4019 77.5313 61.2426 76.1091 61.1351 74.6083C61.0712 73.7169 59.8797 75.9175 59.4104 76.6823C58.4283 78.2829 56.1378 83.1968 56.2168 81.3281C56.3175 78.9483 57.7756 76.4975 58.3994 74.1982C58.585 73.5143 58.5013 73.1158 58.0783 74.0694C56.4684 77.6982 55.4187 81.6898 54.5932 85.5522C54.2977 86.9349 54.0791 88.2988 53.9272 89.7001C53.9206 89.7604 53.944 91.1855 53.8201 91.3991C53.7186 91.5741 53.7396 91.0026 53.725 90.8015C53.5987 89.072 53.6146 87.3313 53.5703 85.5991C53.491 82.4927 53.3365 79.3936 53.0946 76.2956C53.036 75.5463 52.9756 74.7979 52.9756 74.0459C52.9756 72.6984 52.9307 76.7432 53.0113 78.0883C53.2188 81.5512 53.4968 85.0241 53.7844 88.4815C53.8653 89.4538 53.6744 91.9039 55.0452 92.231C55.4843 92.3358 59.6157 92.9423 59.6721 92.4419C59.7763 91.5185 59.4264 91.3522 60.6831 91.3522" stroke="white" stroke-width="3.95327" stroke-linecap="round"/>
<path d="M67.5138 110.258C67.8178 109.921 67.7631 109.578 67.7631 109.153C67.7631 108.238 66.0795 107.234 65.6298 106.874C62.6433 104.481 58.8393 100.842 54.7276 100.746C53.0797 100.708 51.3698 101.121 49.8653 101.77C49.6638 101.857 48.3138 102.822 48.3138 102.22C48.3138 100.009 49.3072 99.2714 51.874 99.5181C56.5576 99.9682 60.3435 101.13 63.635 104.472C64.9518 105.809 66.683 107.119 66.9874 109.084C67.4414 112.016 66.2484 115.476 65.7683 118.35C64.4702 126.122 61.9728 133.691 59.8532 141.277C57.6128 149.294 54.8227 157.173 52.525 165.185C50.7725 171.297 49.4476 177.686 47.3164 183.676C46.247 186.682 44.5477 189.388 42.925 192.124C40.7129 195.853 38.8219 199.739 36.7051 203.518C30.6658 214.302 24.3252 224.935 18.7518 235.915C17.2642 238.846 22.2318 230.329 24.0159 227.564C25.1429 225.817 25.8875 224.706 26.925 222.897C27.308 222.229 27.6711 221.549 28.0194 220.863C28.322 220.267 29.4857 219.021 28.809 219.021C28.3691 219.021 24.9315 226.497 24.5423 227.154C22.1352 231.221 20.1483 238.244 15.2055 240.146C10.1088 242.107 8.32835 237.291 6.29816 234.032C2.99262 228.726 4.49806 221.065 4.92673 215.214C5.46262 207.898 4.41476 200.529 5.20379 193.256C5.52665 190.28 5.95092 187.229 6.54751 184.29C6.92358 182.438 6.88271 181.433 8.81937 180.879C12.7131 179.765 20.3872 179.181 22.1596 175.134C26.9734 164.141 31.1411 152.681 34.5164 141.195C35.8271 136.734 37.7689 132.507 39.1709 128.08C40.259 124.645 40.8598 121.073 42.0939 117.682C43.1733 114.715 44.4666 111.85 45.3493 108.811C46.0444 106.419 46.3332 103.936 47.0393 101.551C47.3428 100.527 47.2327 100.329 46.9562 101.661C46.1519 105.534 45.2791 109.179 44.0194 112.946C39.346 126.921 35.0717 141.024 30.6376 155.073C29.6303 158.265 28.4411 161.494 27.7977 164.79C27.0966 168.381 29.5387 157.674 30.6099 154.173C34.0824 142.819 38.5643 131.825 43.0497 120.834C45.0899 115.835 46.6794 110.873 48.2307 105.727C48.347 105.341 49.4222 100.691 49.4913 102.438C49.6653 106.839 50.7862 111.262 51.68 115.553C51.9282 116.744 52.9369 121.614 53.3978 123.236C53.4988 123.591 53.5072 124.451 53.8272 124.259C54.2234 124.021 53.9537 123.352 53.9657 122.895C53.9907 121.94 53.9602 120.984 53.938 120.029C53.9194 119.229 53.7063 113.657 53.7164 112.796C53.7457 110.298 54.0816 108.491 55.6142 111.977C56.7399 114.538 57.9187 118.317 58.7588 120.902C59.1987 122.256 59.6076 123.619 60.061 124.969C60.2496 125.53 60.3182 126.165 60.6843 126.634C60.8819 126.887 60.6775 125.992 60.6151 125.679C59.3475 119.32 57.616 112.438 54.8246 106.546C52.7074 102.077 58.4542 115.84 61.3077 119.892C62.1488 121.087 62.6943 121.317 62.3051 119.592C61.3074 115.169 59.3105 110.857 57.6783 106.642C57.1565 105.294 55.4859 101.299 56.1406 102.589C57.595 105.454 58.6486 108.579 59.9501 111.513C60.5738 112.92 60.753 114.67 61.9172 115.689C62.1923 115.93 61.6744 115.005 61.5432 114.666C60.4149 111.751 60.2398 111.496 59.119 108.32C58.7343 107.23 57.3929 104.238 58.3155 104.949C60.3849 106.545 61.7042 110.053 63.2194 112.141C63.6574 112.745 64.7221 114.249 63.9952 112.441C62.8736 109.652 61.3496 107.03 60.2272 104.24C60.1521 104.053 59.9488 103.507 60.0887 103.653C60.4474 104.028 60.6499 104.522 60.9198 104.963C61.7912 106.386 62.9838 109.517 64.577 110.367C66.034 111.145 61.6598 104.628 62.8315 105.782C63.3059 106.249 65.9411 110.079 65.5744 107.61C65.5696 107.578 65.4872 107.523 65.4913 107.556C65.7321 109.501 66.0133 111.416 66.0454 113.383C66.1199 117.959 64.8342 122.157 63.4411 126.47C63.318 126.851 62.57 129.051 62.4714 129.718C62.3133 130.787 63.5586 127.825 63.8982 126.798C65.149 123.014 65.5853 119.164 66.1562 115.253C66.1916 115.01 66.324 114.35 66.4333 114.57C66.9967 115.704 66.6208 117.837 66.4748 118.896C65.875 123.252 64.8141 127.69 63.0532 131.738C62.3194 133.424 64.7425 128.436 65.2142 126.661C66.2463 122.777 66.7362 118.737 66.9597 114.734C67.0337 113.409 67.1789 111.766 66.8073 114.393C65.9473 120.472 64.3641 126.422 62.6376 132.311C61.1704 137.315 59.8465 142.583 57.5398 147.295C57.3954 147.59 54.3643 152.596 55.5726 150.979C59.4699 145.764 61.5715 139.414 63.3857 133.266C64.4405 129.691 66.7764 118.773 66.2393 122.458C65.4303 128.009 63.5493 133.258 61.6956 138.534C58.9927 146.226 61.235 139.898 58.4402 147.95C57.9779 149.282 56.5339 155.797 55.0462 156.984C54.0836 157.751 55.7699 154.65 56.1545 153.49C57.6266 149.051 58.9451 144.574 60.3103 140.103C62.2013 133.91 64.8661 127.834 66.4333 121.557C67.4656 117.422 67.1592 113.073 68.0956 108.88C68.3246 107.854 68.2918 107.301 68.2618 108.893C68.2184 111.206 68.025 113.517 67.306 115.73C66.7612 117.407 66.1729 119.122 65.4082 120.711C63.1211 125.463 61.9326 121.944 61.377 118.419C60.976 115.874 61.0612 115.725 60.8506 113.547C60.6622 111.598 61.0828 117.456 61.3077 119.401C61.3508 119.774 61.8573 124.093 62.3051 124.969C63.3328 126.978 63.044 120.517 63.1363 118.268C63.2101 116.471 63.1705 114.664 63.3856 112.878C63.6154 110.97 63.5677 116.717 63.635 118.637C63.6639 119.461 63.8103 123.334 63.9121 124.478C64.0867 126.441 64.1141 120.54 64.1337 118.569C64.1469 117.242 64.2097 112.966 64.0921 111.281C63.9534 109.292 63.4446 115.226 63.3302 117.218C63.2172 119.186 62.9555 124.968 62.9424 127.125C62.9133 131.885 63.7557 127.686 64.106 126.17C65.2802 121.089 66.2359 115.981 67.7908 110.995C67.8235 110.89 67.8132 110.57 67.7631 110.667C66.8991 112.355 66.3213 114.177 65.7129 115.962C65.4269 116.802 65.478 118.235 64.5908 118.378C63.5675 118.542 61.8731 113.166 61.8064 113.015C60.6241 110.336 57.1996 101.895 52.9545 102.466C51.3664 102.679 54.8665 108.389 56.0437 108.511C56.1028 108.517 52.6655 104.043 52.7605 104.199C54.5836 107.192 61.7458 114.966 59.7839 112.059C58.8763 110.715 56.7311 108.249 55.7389 107.201C54.9818 106.401 54.2074 105.613 53.3701 104.895C52.5344 104.178 51.1415 102.979 52.0679 105.072C52.926 107.011 55.5405 110.958 56.5146 112.441C57.9666 114.652 62.3045 121.252 61.1969 118.855C60.6695 117.714 58.189 114.061 57.8168 113.533C56.9327 112.279 56.029 111.037 55.0739 109.835C54.0653 108.565 52.1068 105.04 51.4861 106.532C51.2051 107.208 51.6933 107.988 51.9432 108.675C52.514 110.244 53.2542 111.749 53.938 113.274C55.3162 116.347 59.0181 121.724 59.2298 125.269C59.3327 126.993 57.5104 122.259 56.6809 120.738C54.7043 117.114 52.8191 113.043 50.1285 109.849C49.6184 109.243 50.2732 111.439 50.5718 112.168C52.7487 117.489 55.0515 122.761 57.235 128.08C57.8115 129.485 59.0998 133.744 59.119 132.229C59.16 129 56.3214 123.867 55.1432 121.162C53.5372 117.473 52.3978 115.2 50.5856 111.732C50.164 110.925 49.723 110.128 49.2835 109.33C48.8952 108.625 50.0424 110.748 50.4194 111.459C52.4018 115.195 53.2804 116.909 55.2125 120.848C55.6617 121.763 58.7864 130.515 60.3519 131.014C60.6992 131.125 60.4611 130.29 60.3934 129.936C60.168 128.759 59.8301 127.604 59.4792 126.456C58.2685 122.499 56.8306 118.258 54.5198 114.761C53.443 113.132 53.425 114.164 53.661 115.389C54.6009 120.269 56.3453 125.038 57.5675 129.854C58.0816 131.881 59.4161 134.023 58.7588 136.009C58.6666 136.287 58.2812 135.63 58.1493 135.368C57.218 133.515 55.0232 127.571 54.5198 126.224C53.3571 123.113 51.5628 118.106 50.3086 114.898C50.0208 114.161 49.7949 113.39 49.3804 112.714C48.4136 111.139 50.4038 116.256 50.9735 118.009C53.3309 125.264 55.5907 132.529 57.6506 139.871C57.8141 140.454 57.9551 141.044 58.1493 141.618C58.21 141.797 58.0947 141.243 58.0523 141.058C57.0932 136.885 55.7924 132.778 54.3813 128.735C53.2025 125.358 51.5553 121.025 50.1146 117.682C49.724 116.775 49.3111 115.876 48.8402 115.007C48.726 114.796 48.4017 114.224 48.3692 114.461C48.2971 114.986 48.5675 115.504 48.7017 116.017C50.8442 124.214 53.0368 132.367 55.0185 140.608C55.4203 142.279 55.5893 144.057 56.4038 145.575C57.627 147.855 55.321 140.526 54.6168 138.042C52.5514 130.758 50.2777 123.523 48.0367 116.29C46.2659 110.574 48.1022 119.845 48.2445 120.493C50.0738 128.821 52.3124 136.991 53.3839 145.466C53.4297 145.828 54.6437 155.251 53.6333 149.601C52.1886 141.522 50.1801 133.587 48.0921 125.651C47.9358 125.057 45.8656 115.155 46.5545 121.23C47.5685 130.173 49.5669 138.989 51.1675 147.841C51.6698 150.618 52.1577 153.45 52.5804 156.247C52.6315 156.584 53.0753 160.609 52.4973 156.315C52.1287 153.577 51.9273 151.581 51.777 148.741C51.6583 146.5 50.7859 140.924 52.1649 138.725C52.7855 137.735 53.016 140.924 53.1346 142.082C53.6588 147.201 53.6072 152.379 53.5363 157.516C53.5206 158.649 53.2557 161.989 53.6194 160.914C55.0279 156.751 55.6067 152.019 56.5978 147.759C58.0293 141.604 60.0822 135.2 60.5874 128.872C60.6737 127.79 59.8769 130.929 59.6177 131.983C57.909 138.935 56.3763 145.925 54.5475 152.849C48.5659 175.495 38.5357 196.966 27.2575 217.52C24.212 223.07 20.5604 228.182 16.951 233.377C16.79 233.609 16.4314 234.374 16.5908 234.141C21.6723 226.716 25.7362 218.334 29.7926 210.383C39.1186 192.102 47.2044 173.771 52.1926 153.872C52.8836 151.116 53.8162 146.792 54.3536 143.719C54.8282 141.006 53.195 149.108 52.5389 151.784C46.4987 176.427 33.9453 199.468 22.1458 221.846C19.7389 226.41 16.6559 230.81 14.9977 235.711C14.8804 236.057 13.4807 239.185 14.9146 238.044C16.6103 236.695 13.2636 238.208 13.0168 238.29C13.0108 238.292 9.79231 238.902 10.5648 238.344C11.1801 237.9 11.1093 237.236 11.3821 236.557C12.1042 234.759 13.0207 233.359 14.0557 231.63C19.3328 222.817 24.5695 214.029 29.2523 204.883C38.3258 187.161 46.2814 168.779 51.4445 149.56C52.0122 147.447 53.2796 142.55 53.6748 139.844C54.1359 136.687 51.54 145.866 50.5579 148.905C44.727 166.949 37.898 184.669 29.2939 201.622C24.408 211.248 18.3395 220.203 13.377 229.774C12.8025 230.882 10.7373 233.858 11.8393 235.274C12.0409 235.533 13.367 236.266 13.1276 236.625C11.8147 238.593 13.1481 235.285 13.3077 234.987C20.4448 221.658 26.2298 207.536 32.1614 193.666C35.8935 184.938 40.292 174.414 43.7423 165.554C46.7287 157.885 50.4216 149.531 52.0263 141.372C52.3084 139.938 50.5827 143.933 50.0315 145.289C45.792 155.718 41.6186 166.156 37.093 176.471C30.7237 190.989 23.7845 205.203 16.6462 219.362C14.4465 223.725 12.2474 228.124 10.3847 232.64C9.96882 233.649 9.74226 234.749 9.29037 235.738C7.89742 238.787 12.005 229.602 13.5709 226.636C19.7629 214.904 26.3756 203.46 31.0532 191.018C31.608 189.542 32.1138 188.048 32.577 186.542C32.7287 186.049 33.1998 185.447 32.8956 185.027C32.6447 184.681 32.4717 185.77 32.2999 186.16C30.9399 189.247 29.7283 192.396 28.3934 195.494C23.2413 207.45 17.9406 219.488 11.7977 230.975C10.9358 232.587 10.4287 235.399 8.36223 234.059C7.96508 233.802 6.61975 233.083 6.75531 232.449C6.83419 232.08 7.17237 231.816 7.39253 231.507C9.10952 229.1 10.5931 226.53 11.9917 223.934C25.311 199.209 36.252 172.765 45.5709 146.339C47.2524 141.571 51.8333 127.207 49.4913 131.697C48.8355 132.954 47.9372 136.279 47.6904 137.142C46.1863 142.395 44.7966 147.677 43.2436 152.917C41.9436 157.304 41.959 157.114 40.7224 161.132C40.448 162.024 39.1426 165.841 40.9441 161.528C42.1935 158.537 43.3938 155.526 44.6428 152.535C46.2342 148.723 47.7066 143.644 50.3363 140.308C50.8462 139.661 50.6173 141.976 50.3917 142.764C48.5436 149.221 45.769 155.522 43.0497 161.651C38.4453 172.029 33.0814 181.904 27.0081 191.509C25.6219 193.702 21.7204 200.429 23.1293 198.251C24.0524 196.824 25.4738 193.491 25.8999 192.465C30.0099 182.562 33.5258 172.419 37.0514 162.306C40.9229 151.201 45.4852 139.9 48.009 128.381C48.313 126.993 47.2112 131.109 46.8177 132.475C44.1637 141.684 41.2696 150.793 37.9103 159.781C29.5707 182.096 -0.695522 246.957 8.59773 225.012C18.4628 201.716 28.4904 178.403 37.0653 154.609C39.7287 147.219 41.7793 140.824 43.7146 133.348C44.1262 131.758 46.1609 125.567 45.751 123.386C45.6186 122.682 45.0913 124.664 44.809 125.324C43.3053 128.839 41.9335 132.389 40.667 135.995C36.125 148.93 32.3976 162.153 27.1328 174.833C21.3388 188.789 12.6402 201.971 8.32068 216.483C7.40154 219.57 6.65438 222.709 5.92414 225.844C5.58835 227.286 4.92589 228.982 5.43929 230.457C5.46281 230.524 5.87542 231.701 5.92414 231.221C6.40467 226.487 7.66944 221.75 9.04102 217.206C11.7175 208.339 16.0587 200.151 19.6107 191.619C23.931 181.241 27.3769 170.541 31.2887 160.013C34.2171 152.132 37.3237 144.32 39.8358 136.296C41.6488 130.504 43.2937 124.696 45.4601 119.019C45.6924 118.41 47.0158 114.653 46.3467 117.654C44.8938 124.171 42.1963 130.504 40.1545 136.855C37.1675 146.146 33.7333 155.127 29.8341 164.08C28.76 166.546 27.6934 168.983 26.7588 171.504C26.4264 172.4 24.5925 176.286 25.2627 177.467C25.7489 178.324 26.6549 176.023 27.1051 175.147C30.1404 169.241 32.4418 162.899 34.7103 156.683C36.6196 151.452 38.266 146.501 39.9744 141.208C40.682 139.016 41.3572 136.813 42.0523 134.617C42.5578 133.02 43.0507 131.418 43.5761 129.827C43.7343 129.348 43.9278 127.934 44.1025 128.408C44.3069 128.962 43.8461 129.559 43.6869 130.127C43.2365 131.734 42.7595 133.334 42.2739 134.931C40.001 142.407 37.5352 149.823 34.8765 157.175C33.4224 161.196 31.1769 167.096 29.557 171.176C29.056 172.438 28.55 173.698 28.0055 174.943C26.758 177.794 28.1067 173.713 28.1856 173.455C32.2825 160.083 36.5016 146.784 39.8913 133.211C40.591 130.41 41.6962 127.636 41.7475 124.751C41.8085 121.329 39.6526 131.276 38.6861 134.562C33.154 153.373 26.0844 171.449 18.6687 189.599C16.8122 194.143 15.1091 198.873 12.6566 203.15C11.0527 205.947 9.65213 208.542 8.667 211.624C7.90843 213.998 4.98971 220.728 6.58907 218.803C7.64588 217.53 8.18318 215.913 8.91635 214.436C9.81275 212.63 10.6841 210.812 11.5761 209.004C12.766 206.593 15.4794 199.177 15.3163 201.854C15.1441 204.682 13.2908 207.158 12.241 209.796C12.0116 210.372 11.3237 212.102 11.5622 211.529C12.5997 209.038 13.8364 205.738 14.693 203.382C15.3891 201.467 17.3758 195.688 16.6601 197.596C14.976 202.085 13.6944 206.742 12.2133 211.297C11.8828 212.314 10.3301 217.116 9.6644 218.666C9.04757 220.102 9.91586 215.545 10.2739 214.026C12.1939 205.881 14.3208 197.674 17.0895 189.763C18.3307 186.216 19.7379 182.741 20.9267 179.173C22.7068 173.831 18.6857 184.236 18.6133 184.413C15.4597 192.134 12.3315 199.854 9.45661 207.681C8.88271 209.243 5.85006 216.985 8.08518 210.478C11.0478 201.853 13.8364 193.165 16.9094 184.577C17.6099 182.619 19.2872 177.753 16.8402 182.448C13.3749 189.097 11.2875 196.597 9.01331 203.696C8.98577 203.782 7.79274 207.635 7.47565 208.472C7.03557 209.634 8.00266 206.044 8.36224 204.856C10.4043 198.106 12.8306 191.477 14.7345 184.686C15.0401 183.596 15.5222 182.527 15.5796 181.397C15.6759 179.498 14.1484 184.929 13.4601 186.706C12.2011 189.955 11.406 192.037 10.3016 195.385C9.49707 197.824 7.68179 205.292 8.05747 202.754C8.9438 196.767 11.0806 190.85 12.8228 185.068C13.1984 183.822 13.927 182.599 13.8479 181.302C13.6943 178.779 12.081 186.052 11.3683 188.48C10.3495 191.951 9.75188 194.249 8.87479 197.705C8.63276 198.659 8.40943 199.617 8.16829 200.571C7.83346 201.895 8.03335 200.895 8.196 200.025C9.26861 194.289 10.7753 188.503 11.3544 182.694C11.4564 181.671 11.3305 181.575 10.9112 182.571C9.71551 185.41 9.15976 188.577 8.52846 191.564C8.08143 193.679 7.73183 195.815 7.254 197.923C6.90154 199.479 7.49644 194.744 7.68344 193.161C7.95508 190.861 8.27295 188.274 8.41764 185.942C8.65754 182.075 7.90464 185.724 7.75271 186.46C6.69073 191.607 5.96451 196.827 5.37002 202.045C5.14831 203.99 6.23514 198.354 6.36743 197.76C6.70508 196.242 6.90449 194.72 7.18475 193.202C7.25508 192.821 8.75732 193.481 8.91635 193.529" stroke="white" stroke-width="2.96495" stroke-linecap="round"/>
<path d="M5.52515 181.905C8.98426 180.916 11.434 178.159 13.9244 177.004C17.4314 175.379 19.9025 174.686 22.7534 171.941C25.1053 169.676 27.4647 168.718 28.7349 165.59" stroke="#4B4B4B" stroke-width="2" stroke-linecap="round"/>
<path d="M26.1592 184.007C26.1592 182.398 27.363 179.897 27.7889 178.396C29.6134 171.967 30.102 165.938 30.6005 159.308C31.0055 153.922 31.4121 148.967 32.2123 143.606C32.7772 139.822 33.1011 136.528 34.3972 132.88C36.1099 128.059 37.4167 122.981 39.34 118.272C41.3432 113.368 43.2136 108.455 45.1604 103.541C45.9904 101.446 45.7898 98.7941 48.0795 97.9482" stroke="#4B4B4B" stroke-width="2" stroke-linecap="round"/>
<path d="M48.7227 97.3115C53.0159 97.3115 57.8864 96.1527 61.42 99.1463C64.5484 101.797 70.362 103.866 71.2877 108.426" stroke="#4B4B4B" stroke-width="2" stroke-linecap="round"/>
<path d="M19.0645 175.752C20.0649 174.767 20.292 173.294 20.8553 172.047C22.9095 167.501 24.9359 163 26.4787 158.251C28.6544 151.553 29.9539 144.806 32.6035 138.28" stroke="#4B4B4B" stroke-width="2" stroke-linecap="round"/>
<path d="M44.8542 174.795C45.5817 174.715 46.5524 173.933 47.1108 173.525C53.5432 168.823 54.6887 164.715 56.1368 157.012" stroke="#4B4B4B" stroke-width="2.51212" stroke-linecap="round"/>
<path d="M53.5581 104.615C53.6211 104.18 54.8384 105.55 55.0087 105.744C61.6874 113.335 61.5221 121.732 61.9394 131.29" stroke="#4B4B4B" stroke-width="2.51212" stroke-linecap="round"/>
<path d="M47.7927 96.5073C47.8418 92.1533 48.1174 87.76 47.7536 83.414C47.6567 82.2562 47.2952 81.1427 47.1601 79.9896C46.8578 77.4091 46.6333 74.1131 47.4731 71.6312C47.9251 70.2956 48.5444 68.9806 49.1492 67.7058C49.7343 66.4726 50.5921 65.5959 51.3144 64.4742C51.6791 63.9079 51.9062 63.1943 52.4297 62.746C52.485 62.6986 53.009 62.2267 52.8405 62.3926" stroke="#4B4B4B" stroke-width="2" stroke-linecap="round"/>
<path d="M55.4244 48.7483C55.4244 55.858 55.0722 62.9534 55.0722 70.0652C55.0722 70.3295 55.0097 70.6904 55.0722 70.9518C55.1811 71.4077 57.4476 69.3323 57.5765 69.2043C58.6563 68.1329 59.8463 67.4001 60.6939 66.1012C61.5895 64.7288 62.5391 63.3229 63.2113 61.8288C64.3566 59.283 65.3995 56.6358 65.5069 53.8302C65.5643 52.3316 65.4197 50.8378 65.4939 49.3394C65.508 49.0545 65.8145 47.8537 65.6113 47.5919C65.4052 47.3264 64.5191 47.4762 64.2222 47.4762C63.0724 47.4762 61.939 47.2578 60.7917 47.2578C60.2337 47.2578 56.3669 47.463 56.2461 47.9388" stroke="#4B4B4B" stroke-width="2" stroke-linecap="round"/>
<path d="M66.2239 53.9521C69.1361 54.2709 70.8765 56.7746 70.9978 59.4645C71.1288 62.367 69.3481 65.2939 68.1283 67.8036C67.8248 68.4281 66.1518 73.2757 65.637 73.1489" stroke="#4B4B4B" stroke-width="2" stroke-linecap="round"/>
<path d="M71.5063 62.3955C73.213 65.5712 73.3346 69.3108 72.1716 72.6749C71.7727 73.8285 71.1951 74.8872 70.639 75.9707C70.1555 76.9128 69.8511 77.9454 69.3216 78.8618C69.0438 79.3425 67.0507 81.3618 67.7498 81.4766" stroke="#4B4B4B" stroke-width="2" stroke-linecap="round"/>
<path d="M74.0885 71.1826C74.189 72.2718 74.3785 73.3736 74.4929 74.4656C74.8734 78.1003 74.4739 81.3148 73.5537 84.8413C72.9589 87.1212 72.7429 89.6167 71.1864 91.4908C70.628 92.1631 70.3499 93.0112 69.8037 93.6688C69.1766 94.4238 68.2886 95.1905 67.8146 96.0395C67.3204 96.9246 66.5577 97.6415 65.9494 98.4487C65.7478 98.7162 64.9191 99.7613 65.6364 98.937" stroke="#4B4B4B" stroke-width="2" stroke-linecap="round"/>
<path d="M32.7367 7.1543C32.2115 8.03376 31.3495 8.36741 30.8091 9.42134C28.6608 13.6109 28.4161 19.0152 33.2284 21.3184C39.5652 24.3513 47.1785 24.3067 54.0385 25.2906C57.0886 25.7281 59.5849 26.5523 61.3358 29.2046C62.9799 31.6952 62.729 34.8589 62.5749 37.6915C62.4408 40.1574 62.4766 42.5882 62.4766 45.0545C62.4766 45.8154 62.6907 46.3057 61.9455 45.6939" stroke="#4B4B4B" stroke-width="2" stroke-linecap="round"/>
<path d="M35.3737 16.1805C30.8658 14.1078 32.864 4.78231 35.5498 1.98525C35.2429 1.1223 41.7883 1.26679 42.3006 1.33418C47.6753 2.04121 52.9492 3.19172 58.3067 3.94765C62.0476 4.47548 65.8016 4.89638 69.4601 5.85503C73.0483 6.79527 76.6326 7.88427 80.2809 8.58771C84.3414 9.37065 88.2564 10.4758 92.2757 11.3754C94.6917 11.9162 99.1696 11.4054 99.7406 14.319C100.381 17.5882 99.3421 26.0059 94.3302 25.745C87.5279 25.3907 80.7083 24.2765 74.0193 23.1131C67.134 21.9156 60.292 20.8551 53.3757 19.8119C49.6085 19.2437 46.0815 18.4558 42.3984 17.5744C40.1046 17.0255 37.5102 17.1629 35.3737 16.1805Z" fill="white" stroke="#4B4B4B" stroke-width="2" stroke-linecap="round"/>
<path d="M7.50322 186.353C6.41099 193.264 6.02227 197.175 5.52548 204.142C4.88418 213.136 2.60809 226.296 7.50364 234.482C8.42253 236.018 10.4125 238.998 12.445 239.228C14.9428 239.509 19.2553 236.188 20.6309 234.482C23.6076 230.791 25.3871 226.159 27.237 221.868C30.6771 213.889 33.9556 205.839 37.2957 197.819" stroke="#DADADA" stroke-width="3.95327" stroke-linecap="round"/>
<path d="M44.6497 173.723C45.4803 173.723 45.9321 173.303 46.4599 172.635C48.7223 169.769 50.7055 166.517 52.3165 163.26C54.084 159.686 54.1616 156.997 54.2332 153.189" stroke="#DADADA" stroke-width="3.95327" stroke-linecap="round"/>
<path d="M55.9106 102.917C55.7071 103.146 55.8901 103.282 56.0437 103.52C57.2378 105.369 58.626 107.061 59.7839 108.975C63.5354 115.174 66.0827 122.767 63.0982 129.823" stroke="#DADADA" stroke-width="3.95327" stroke-linecap="round"/>
<path d="M3.54949 188.823C1.99979 194.319 2.2639 195.89 2.05169 201.577C1.78966 208.598 1.81681 215.874 2.37404 222.888C2.76948 227.866 2.76453 234.386 5.56181 238.731C15.4713 254.125 26.2968 230.768 29.685 223.259C33.5641 214.661 38.2294 206.411 43.027 198.278C45.6497 193.831 48.7294 189.092 50.7815 184.376C53.8631 177.292 54.0729 169.426 56.5302 162.164C60.2681 151.117 63.7722 140.025 67.383 128.944C69.0049 123.966 69.9527 118.585 70.6245 113.401C70.7675 112.298 72.3062 106.482 70.9647 107.474" stroke="#4B4B4B" stroke-width="2" stroke-linecap="round"/>
</svg>
