<svg width="59" height="44" viewBox="0 0 59 44" fill="none" xmlns="http://www.w3.org/2000/svg">
<path d="M12.2151 25.223L3.24932 26.0074C2.97423 26.0315 2.77073 26.274 2.7948 26.5491L4.01498 40.4958C4.03905 40.7709 4.28156 40.9744 4.55665 40.9504L13.5224 40.166C13.7975 40.1419 14.001 39.8994 13.9769 39.6243L12.7567 25.6776C12.7327 25.4025 12.4902 25.199 12.2151 25.223Z" fill="#E9E9E9"/>
<path d="M2.75122 26.051L11.717 25.2666C11.9921 25.2426 12.2346 25.4461 12.2586 25.7211L13.4788 39.6679C13.5029 39.943 13.2994 40.1855 13.0243 40.2095L6.54904 40.7761M4.05856 40.9939L4.55665 40.9504" stroke="#5E5E5E" stroke-linecap="round"/>
<path d="M47.2857 29.246C29.6857 35.7077 25.3631 20.6062 13.1308 26.2647C12.9482 26.3491 12.8279 26.5424 12.8388 26.7433L13.4031 37.1691C13.4309 37.6823 14.2373 37.8747 14.6263 37.5387C19.8071 33.0634 31.3721 50.8013 49.8806 32.522C51.4565 30.9656 49.365 28.4826 47.2857 29.246Z" fill="white"/>
<path d="M23.9887 31.3687C33.3467 35.0672 35.1498 30.7452 30.0483 28.2647C24.8528 25.7386 20.1021 23.094 13.127 25.9706C12.9285 26.0525 12.803 26.2535 12.8151 26.4679L13.4155 37.0785C13.4417 37.5417 14.0562 37.7469 14.4318 37.4747C20.5822 33.0173 30.1073 50.5038 49.8689 31.9309C51.2731 30.6112 50.0621 28.5086 48.2007 29.0071C42.9849 30.4042 39.1375 31.6155 35.9326 30.6767C35.5297 30.5587 35.1335 30.4306 34.743 30.2941" stroke="#5E5E5E" stroke-width="1.0244" stroke-linecap="round"/>
<circle cx="34.3865" cy="14.751" r="10.8947" fill="white" stroke="#5E5E5E" stroke-width="1.21053"/>
<path d="M39.4143 11.6214V12.6738C39.4143 12.7701 39.3834 12.8491 39.3215 12.911C39.2596 12.973 39.1805 13.0039 39.0842 13.0039H37.3509C37.1927 13.9943 36.7491 14.7991 36.02 15.4181C35.291 16.0371 34.3418 16.4154 33.1725 16.5529C34.3212 17.7772 35.8997 19.6205 37.908 22.0829C38.0043 22.1929 38.0181 22.3098 37.9493 22.4336C37.8943 22.5574 37.7945 22.6193 37.6501 22.6193H35.6383C35.5282 22.6193 35.4423 22.5781 35.3804 22.4955C33.2757 19.9713 31.5631 18.0076 30.2425 16.6045C30.1806 16.5426 30.1497 16.467 30.1497 16.3776V15.0673C30.1497 14.9779 30.1823 14.9005 30.2477 14.8352C30.313 14.7698 30.3904 14.7372 30.4798 14.7372H31.6353C32.5432 14.7372 33.274 14.5893 33.8277 14.2935C34.3813 13.9978 34.7338 13.5679 34.8852 13.0039H30.4798C30.3835 13.0039 30.3044 12.973 30.2425 12.911C30.1806 12.8491 30.1497 12.7701 30.1497 12.6738V11.6214C30.1497 11.5251 30.1806 11.446 30.2425 11.3841C30.3044 11.3222 30.3835 11.2913 30.4798 11.2913H34.7407C34.3487 10.5141 33.427 10.1255 31.9758 10.1255H30.4798C30.3904 10.1255 30.313 10.0928 30.2477 10.0275C30.1823 9.96211 30.1497 9.88473 30.1497 9.79532V8.42316C30.1497 8.32687 30.1806 8.24777 30.2425 8.18587C30.3044 8.12397 30.3835 8.09302 30.4798 8.09302H39.0635C39.1598 8.09302 39.2389 8.12397 39.3008 8.18587C39.3627 8.24777 39.3937 8.32687 39.3937 8.42316V9.47549C39.3937 9.57179 39.3627 9.65088 39.3008 9.71278C39.2389 9.77469 39.1598 9.80564 39.0635 9.80564H36.6597C36.9829 10.2252 37.203 10.7204 37.32 11.2913H39.0842C39.1805 11.2913 39.2596 11.3222 39.3215 11.3841C39.3834 11.446 39.4143 11.5251 39.4143 11.6214Z" fill="#5E5E5E"/>
</svg>
