<svg width="216" height="32" viewBox="0 0 216 32" fill="none" xmlns="http://www.w3.org/2000/svg">
<path d="M16.0244 0C15.3415 0 14.6586 0.36875 14.3051 1.1125L10.3934 9.3875L1.6414 10.7125C0.0719135 10.95 -0.55708 12.9688 0.581099 14.125L6.91297 20.5625L5.41536 29.6563C5.14579 31.2875 6.79316 32.5313 8.19492 31.7625L16.0244 27.475V0Z" fill="#FEC600"/>
<path d="M15.9246 0C16.6075 0 17.2904 0.36875 17.6438 1.1125L21.5556 9.3875L30.3076 10.7125C31.8771 10.95 32.5061 12.9688 31.3679 14.125L25.036 20.5625L26.5336 29.6563C26.8032 31.2875 25.1558 32.5313 23.7541 31.7625L15.9246 27.475V0Z" fill="#FEC600"/>
<path d="M62.0244 0C61.3415 0 60.6586 0.36875 60.3051 1.1125L56.3934 9.3875L47.6414 10.7125C46.0719 10.95 45.4429 12.9688 46.5811 14.125L52.913 20.5625L51.4154 29.6563C51.1458 31.2875 52.7932 32.5313 54.1949 31.7625L62.0244 27.475V0Z" fill="#FEC600"/>
<path d="M61.9246 0C62.6075 0 63.2904 0.36875 63.6438 1.1125L67.5556 9.3875L76.3076 10.7125C77.8771 10.95 78.5061 12.9688 77.3679 14.125L71.036 20.5625L72.5336 29.6563C72.8032 31.2875 71.1558 32.5313 69.7541 31.7625L61.9246 27.475V0Z" fill="#FEC600"/>
<path d="M108.024 0C107.341 0 106.659 0.36875 106.305 1.1125L102.393 9.3875L93.6414 10.7125C92.0719 10.95 91.4429 12.9688 92.5811 14.125L98.913 20.5625L97.4154 29.6563C97.1458 31.2875 98.7932 32.5313 100.195 31.7625L108.024 27.475V0Z" fill="#FEC600"/>
<path d="M107.925 0C108.607 0 109.29 0.36875 109.644 1.1125L113.556 9.3875L122.308 10.7125C123.877 10.95 124.506 12.9688 123.368 14.125L117.036 20.5625L118.534 29.6563C118.803 31.2875 117.156 32.5313 115.754 31.7625L107.925 27.475V0Z" fill="#FEC600"/>
<path d="M154.024 0C153.341 0 152.659 0.36875 152.305 1.1125L148.393 9.3875L139.641 10.7125C138.072 10.95 137.443 12.9688 138.581 14.125L144.913 20.5625L143.415 29.6563C143.146 31.2875 144.793 32.5313 146.195 31.7625L154.024 27.475V0Z" fill="#FEC600"/>
<path d="M153.925 0C154.607 0 155.29 0.36875 155.644 1.1125L159.556 9.3875L168.308 10.7125C169.877 10.95 170.506 12.9688 169.368 14.125L163.036 20.5625L164.534 29.6563C164.803 31.2875 163.156 32.5313 161.754 31.7625L153.925 27.475V0Z" fill="#FEC600"/>
<path d="M200.024 0C199.341 0 198.659 0.3688 198.305 1.11265L194.393 9.38879L185.641 10.714C184.072 10.9515 183.443 12.9705 184.581 14.1269L190.913 20.5653L189.415 29.6603C189.146 31.2918 190.793 32.5357 192.195 31.7669L200.024 27.4788V0Z" fill="#FEC600"/>
<g clip-path="url(#clip0_60_9997)">
<path d="M200 24.0845L205.756 28.1726L204.659 19.5214L209.317 13.3956L202.88 12.1329L200 4.25683V0C200.528 0 201.056 0.3688 201.329 1.11265L204.353 9.38879L211.118 10.714C212.332 10.9515 212.818 12.9705 211.938 14.1269L207.043 20.5653L208.201 29.6603C208.409 31.2918 207.136 32.5357 206.052 31.7669L200 27.4788V24.0845Z" fill="#FEC600"/>
</g>
<defs>
<clipPath id="clip0_60_9997">
<rect width="12.2021" height="32" fill="white" transform="translate(200.024)"/>
</clipPath>
</defs>
</svg>
